# xmcd CD database file
#
# Track frame offsets:
#	182
#	16082
#	31872
#	44880
#	59132
#	73027
#	87405
#	102322
#	116200
#	128012
#	140227
#	153177
#	167962
#	181077
#	194352
#	208300
#	220920
#
# Disc length: 3086 seconds
#
# Revision: 2
# Processed by: cddbd v1.5.2PL0 Copyright (c) Steve Scherf et al.
# Submitted via: CDex 1.70beta2
#
DISCID=070c0c11
DTITLE=Charlie Parker - 16 Greatest Hits
DYEAR=1988
DGENRE=Jazz
TTITLE0=I Get A Kick Out of You
TTITLE1=Old Folks
TTITLE2=Bebop
TTITLE3=Cosmic Rays
TTITLE4=I Can't Get Started
TTITLE5=Birds Of Paradise
TTITLE6=Charlie Parker - The Can't Take That Away From Me
TTITLE7=Moose The Mooche
TTITLE8=Au Privave
TTITLE9=Laird Baird
TTITLE10=Stupendous
TTITLE11=An Oscar For Treadwell
TTITLE12=Drifting On Reed
TTITLE13=Scrapple Fron  The Apple
TTITLE14=Klackt-Oveededs-Teine
TTITLE15=I´m In The Mood Of Love
TTITLE16=Cool Blues
EXTD=Charlie Parker - 16 Greatest Hits YEAR: 1988
EXTT0=
EXTT1=
EXTT2=
EXTT3=
EXTT4=
EXTT5=
EXTT6=
EXTT7=
EXTT8=
EXTT9=
EXTT10=
EXTT11=
EXTT12=
EXTT13=
EXTT14=
EXTT15=
EXTT16=
PLAYORDER=
